<svg width="243" height="89" viewBox="0 0 243 89" fill="none" xmlns="http://www.w3.org/2000/svg">
<g clip-path="url(#clip0_667_73)">
<path d="M69.9077 36.4886C71.1782 33.3746 71.8812 29.9615 71.8812 26.3837C71.8812 11.8356 60.279 0 46.0181 0C31.7571 0 20.1549 11.8356 20.1549 26.3837C20.1549 29.9688 20.8607 33.3885 22.136 36.5077C9.63486 38.3564 0 49.3593 0 62.6163C0 77.1644 11.6022 89 25.8631 89C30.4582 89 34.7768 87.7707 38.5203 85.618C39.1649 85.2445 39.7775 84.8553 40.3612 84.4535C42.5271 82.952 44.459 81.1244 46.0885 79.0403C46.0929 79.0459 46.0975 79.0513 46.1018 79.0569C50.7105 73.126 51.6004 66.5073 51.7476 63.4185C51.7337 63.1529 51.7263 62.8855 51.7263 62.6163C51.7263 62.2922 51.7376 61.9709 51.7577 61.6519C52.2467 53.8942 58.5879 47.7351 66.3139 47.7351C74.3576 47.7351 80.9016 54.4107 80.9016 62.6163C80.9016 70.8219 74.3576 77.4976 66.3139 77.4976C62.8957 77.4976 59.7488 76.2915 57.2593 74.2754C57.0092 78.5633 54.7338 82.3815 52.6617 85.0129C56.6266 87.5377 61.3054 89 66.3139 89C80.5749 89 92.1771 77.1644 92.1771 62.6163C92.1771 49.3122 82.4736 38.2786 69.9077 36.4886ZM60.7445 29.5251C60.0129 32.6614 58.2311 35.4263 55.7774 37.4343C54.9918 38.157 54.129 38.7938 53.2034 39.3305C51.02 40.9663 49.4298 42.4743 45.7486 46.537C41.6772 51.0302 40.7712 59.1089 40.5769 63.077C40.4554 65.5579 39.7491 67.974 38.4817 70.0757C35.9531 74.5099 31.2439 77.4976 25.8631 77.4976C17.8194 77.4976 11.2755 70.8219 11.2755 62.6163C11.2755 54.4107 17.8194 47.7351 25.8631 47.7351C29.0085 47.7351 31.9245 48.7559 34.3096 50.4898C35.8571 45.4243 38.8697 41.9012 40.596 40.1983C35.2295 37.9986 31.4304 32.6355 31.4304 26.3837C31.4304 18.1781 37.9744 11.5024 46.0181 11.5024C51.5941 11.5024 56.4485 14.7109 58.9028 19.4127C59.13 19.7648 59.3491 20.1331 59.5593 20.518C61.3258 23.7521 61.3574 26.8976 60.7445 29.5251Z" fill="#25EF7D"/>
<path d="M128.025 29.4239C127.377 30.9429 126.528 32.2313 125.476 33.2901C124.422 34.3484 123.227 35.1618 121.889 35.7294C120.55 36.2965 119.189 36.5808 117.806 36.5808C116.662 36.5808 115.61 36.427 114.647 36.1206C113.684 35.8142 112.82 35.3998 112.053 34.878C111.286 34.3563 110.594 33.7581 109.978 33.0826C109.361 32.4082 108.812 31.7021 108.331 30.9655V43.3928H106.12V12.5555H108.331V17.8022C108.812 17.0356 109.369 16.2995 110 15.5929C110.632 14.8874 111.331 14.274 112.098 13.7522C112.865 13.231 113.722 12.8087 114.67 12.4865C115.617 12.1643 116.662 12.0032 117.806 12.0032C119.189 12.0032 120.55 12.2791 121.889 12.8314C123.227 13.3837 124.422 14.1824 125.476 15.2249C126.528 16.2685 127.378 17.5495 128.025 19.0679C128.671 20.5869 128.995 22.2975 128.995 24.1998V24.292C128.995 26.1948 128.671 27.9049 128.025 29.4239ZM126.649 24.292C126.649 22.7583 126.407 21.3619 125.925 20.1036C125.443 18.8457 124.786 17.7795 123.957 16.905C123.128 16.0305 122.163 15.356 121.062 14.8795C119.962 14.4046 118.809 14.1666 117.603 14.1666C116.396 14.1666 115.228 14.4125 114.098 14.9027C112.967 15.3939 111.964 16.0842 111.09 16.974C110.215 17.8643 109.514 18.9226 108.987 20.1499C108.459 21.3772 108.196 22.743 108.196 24.2462V24.3378C108.196 25.8415 108.459 27.2147 108.987 28.4572C109.514 29.6998 110.215 30.7586 111.09 31.6331C111.964 32.5077 112.967 33.1906 114.098 33.6813C115.228 34.1725 116.396 34.4173 117.603 34.4173C118.869 34.4173 120.052 34.1873 121.154 33.7271C122.254 33.2669 123.211 32.6077 124.026 31.7479C124.839 30.8892 125.48 29.8383 125.947 28.5952C126.415 27.3526 126.649 25.9489 126.649 24.3841V24.292Z" fill="white"/>
<path d="M149.884 36.0285V32.1165C149.493 32.6689 149.019 33.2138 148.463 33.7503C147.906 34.2873 147.267 34.7628 146.545 35.1772C145.823 35.5915 145.003 35.9295 144.086 36.1896C143.169 36.4497 142.169 36.5808 141.086 36.5808C140.003 36.5808 138.935 36.4271 137.883 36.1207C136.829 35.8142 135.882 35.3541 135.04 34.7396C134.198 34.1262 133.513 33.3591 132.987 32.4388C132.461 31.5179 132.198 30.4443 132.198 29.2165V29.1249C132.198 27.8976 132.446 26.8082 132.942 25.8568C133.439 24.906 134.122 24.1078 134.995 23.4638C135.867 22.8194 136.92 22.3287 138.153 21.9906C139.386 21.6537 140.755 21.4847 142.259 21.4847C143.883 21.4847 145.282 21.5763 146.455 21.7606C147.628 21.9448 148.771 22.1907 149.884 22.4972V21.4905C149.884 19.1106 149.214 17.3257 147.876 16.1353C146.538 14.9459 144.68 14.3504 142.304 14.3504C140.89 14.3504 139.597 14.5273 138.424 14.8796C137.251 15.2329 136.138 15.6851 135.085 16.2374L134.273 14.2562C135.537 13.6291 136.815 13.1279 138.108 12.7519C139.401 12.376 140.845 12.1875 142.439 12.1875C145.417 12.1875 147.763 12.9546 149.478 14.4884C151.192 16.0231 152.049 18.3245 152.049 21.3925V36.0285L149.884 36.0285ZM149.929 24.5637C148.966 24.3194 147.838 24.083 146.545 23.8535C145.252 23.6244 143.778 23.5096 142.124 23.5096C139.687 23.5096 137.815 24.0067 136.507 24.9997C135.198 25.9927 134.544 27.3137 134.544 28.9638V29.0549C134.544 29.911 134.724 30.6671 135.085 31.3236C135.446 31.9812 135.935 32.5383 136.552 32.9964C137.168 33.4555 137.883 33.8061 138.695 34.051C139.507 34.2953 140.349 34.4174 141.221 34.4174C142.394 34.4174 143.507 34.2421 144.56 33.8904C145.613 33.5397 146.538 33.0506 147.335 32.424C148.131 31.798 148.763 31.0414 149.23 30.1553C149.696 29.2692 149.929 28.292 149.929 27.2221V24.5637Z" fill="white"/>
<path d="M170.367 14.6727C169.043 14.6727 167.78 14.926 166.577 15.4319C165.374 15.9384 164.313 16.6908 163.396 17.6875C162.478 18.6847 161.749 19.9126 161.208 21.3694C160.667 22.8273 160.396 24.5069 160.396 26.4092V36.0286H158.185V12.5556H160.396V19.2292C160.847 18.1867 161.418 17.22 162.11 16.3296C162.802 15.4398 163.584 14.6806 164.456 14.0514C165.328 13.4228 166.284 12.9468 167.322 12.6246C168.359 12.3024 169.449 12.157 170.592 12.1876V14.6727H170.367Z" fill="white"/>
<path d="M189.09 36.0285V32.1165C188.699 32.6689 188.225 33.2138 187.669 33.7503C187.112 34.2873 186.474 34.7628 185.752 35.1772C185.03 35.5915 184.21 35.9295 183.293 36.1896C182.375 36.4497 181.375 36.5808 180.292 36.5808C179.21 36.5808 178.142 36.4271 177.089 36.1207C176.036 35.8142 175.088 35.3541 174.247 34.7396C173.404 34.1262 172.72 33.3591 172.194 32.4388C171.667 31.5179 171.404 30.4443 171.404 29.2165V29.1249C171.404 27.8976 171.653 26.8082 172.149 25.8568C172.645 24.906 173.329 24.1078 174.202 23.4638C175.074 22.8194 176.126 22.3287 177.36 21.9906C178.593 21.6537 179.961 21.4847 181.466 21.4847C183.09 21.4847 184.489 21.5763 185.661 21.7606C186.835 21.9448 187.977 22.1907 189.09 22.4972V21.4905C189.09 19.1106 188.421 17.3257 187.083 16.1353C185.744 14.9459 183.887 14.3504 181.511 14.3504C180.097 14.3504 178.804 14.5273 177.631 14.8796C176.458 15.2329 175.344 15.6851 174.292 16.2374L173.48 14.2562C174.743 13.6291 176.021 13.1279 177.315 12.7519C178.608 12.376 180.051 12.1875 181.646 12.1875C184.624 12.1875 186.97 12.9546 188.684 14.4884C190.399 16.0231 191.256 18.3245 191.256 21.3925V36.0285L189.09 36.0285ZM189.136 24.5637C188.173 24.3194 187.045 24.083 185.752 23.8535C184.458 23.6244 182.984 23.5096 181.33 23.5096C178.894 23.5096 177.022 24.0067 175.713 24.9997C174.405 25.9927 173.751 27.3137 173.751 28.9638V29.0549C173.751 29.911 173.931 30.6671 174.292 31.3236C174.653 31.9812 175.141 32.5383 175.758 32.9964C176.374 33.4555 177.089 33.8061 177.901 34.051C178.713 34.2953 179.555 34.4174 180.428 34.4174C181.601 34.4174 182.713 34.2421 183.767 33.8904C184.819 33.5397 185.744 33.0506 186.541 32.424C187.338 31.798 187.97 31.0414 188.436 30.1553C188.902 29.2692 189.136 28.292 189.136 27.2221L189.136 24.5637Z" fill="white"/>
<path d="M214.897 36.0287V22.083C214.897 19.6594 214.266 17.7187 213.002 16.2608C211.739 14.8039 209.934 14.0747 207.588 14.0747C206.445 14.0747 205.392 14.2816 204.43 14.696C203.467 15.1104 202.625 15.6853 201.903 16.4219C201.182 17.1585 200.618 18.0404 200.211 19.0682C199.806 20.0964 199.602 21.2242 199.602 22.451V36.0287H197.392V12.5557H199.602V16.9279C200.384 15.5474 201.437 14.3817 202.761 13.4303C204.084 12.4794 205.798 12.0034 207.904 12.0034C209.348 12.0034 210.641 12.2414 211.784 12.7168C212.927 13.1928 213.897 13.8604 214.694 14.7192C215.491 15.5784 216.093 16.5988 216.499 17.7798C216.905 18.9613 217.108 20.2576 217.108 21.6686V36.0287L214.897 36.0287Z" fill="white"/>
<path d="M117.71 77.5561C110.22 77.5561 104.67 71.8945 104.67 64.8061V64.714C104.67 57.6255 110.265 51.8723 117.8 51.8723C125.29 51.8723 130.84 57.5339 130.84 64.6223V64.714C130.84 71.8024 125.245 77.5561 117.71 77.5561ZM124.072 64.714C124.072 61.0779 121.5 57.9019 117.71 57.9019C113.784 57.9019 111.438 60.9857 111.438 64.6223V64.714C111.438 68.3506 114.01 71.5265 117.8 71.5265C121.726 71.5265 124.072 68.4427 124.072 64.8061V64.714Z" fill="white"/>
<path d="M134.312 77.0038V43.4028H141.17V77.0038H134.312Z" fill="white"/>
<path d="M159.984 77.0039V74.3345C158.314 76.2215 156.013 77.4641 152.674 77.4641C148.117 77.4641 144.372 74.7947 144.372 69.9155V69.8233C144.372 64.4382 148.388 61.9525 154.118 61.9525C156.555 61.9525 158.314 62.3669 160.029 62.965V62.5511C160.029 59.6511 158.269 58.04 154.84 58.04C152.223 58.04 150.373 58.5465 148.162 59.3747L146.448 54.0353C149.11 52.8391 151.727 52.0562 155.833 52.0562C163.323 52.0562 166.617 56.015 166.617 62.6891V77.0039H159.984ZM160.119 67.0618C158.946 66.5095 157.412 66.1409 155.743 66.1409C152.81 66.1409 151.005 67.3377 151.005 69.5474V69.639C151.005 71.5266 152.539 72.6312 154.75 72.6312C157.953 72.6312 160.119 70.8358 160.119 68.3043V67.0618Z" fill="white"/>
<path d="M182.136 77.5561C174.872 77.5561 169.547 71.8487 169.547 64.8061V64.714C169.547 57.6719 174.827 51.8723 182.226 51.8723C186.784 51.8723 189.626 53.4371 191.882 56.0149L187.686 60.6177C186.152 58.9608 184.618 57.9019 182.181 57.9019C178.752 57.9019 176.316 60.9857 176.316 64.6223V64.714C176.316 68.4885 178.707 71.5265 182.452 71.5265C184.753 71.5265 186.332 70.514 188.002 68.9029L192.018 73.0455C189.671 75.6691 186.964 77.5561 182.136 77.5561Z" fill="white"/>
<path d="M208.846 77.0039V74.3345C207.176 76.2215 204.875 77.4641 201.536 77.4641C196.979 77.4641 193.234 74.7947 193.234 69.9155V69.8233C193.234 64.4382 197.25 61.9525 202.98 61.9525C205.416 61.9525 207.176 62.3669 208.891 62.965V62.5511C208.891 59.6511 207.131 58.04 203.702 58.04C201.085 58.04 199.235 58.5465 197.024 59.3747L195.309 54.0353C197.972 52.8391 200.589 52.0562 204.695 52.0562C212.185 52.0562 215.478 56.015 215.478 62.6891V77.0039H208.846ZM208.981 67.0618C207.808 66.5095 206.274 66.1409 204.604 66.1409C201.671 66.1409 199.867 67.3377 199.867 69.5474V69.639C199.867 71.5266 201.401 72.6312 203.612 72.6312C206.815 72.6312 208.981 70.8358 208.981 68.3043V67.0618Z" fill="white"/>
<path d="M235.149 77.0038L228.832 66.9237L226.441 69.501V77.0038H219.583V43.4028H226.441V61.308L234.472 52.3325H242.684L233.48 62.0445L243 77.0038L235.149 77.0038Z" fill="white"/>
</g>
<defs>
<clipPath id="clip0_667_73">
<rect width="243" height="89" fill="white"/>
</clipPath>
</defs>
</svg>
