<svg width="91" height="87" viewBox="0 0 91 87" fill="none" xmlns="http://www.w3.org/2000/svg">
<g clip-path="url(#clip0_667_211)">
<path d="M69.015 35.6686C70.2692 32.6246 70.9633 29.2882 70.9633 25.7908C70.9633 11.5696 59.5093 0 45.4304 0C31.3516 0 19.8976 11.5696 19.8976 25.7908C19.8976 29.2953 20.5943 32.6382 21.8534 35.6873C9.51182 37.4945 0 48.2501 0 61.2092C0 75.4304 11.454 87 25.5329 87C30.0693 87 34.3327 85.7983 38.0284 83.694C38.6648 83.3289 39.2696 82.9485 39.8458 82.5557C41.984 81.0879 43.8912 79.3013 45.5 77.2642C45.5043 77.2696 45.5088 77.2749 45.5131 77.2803C50.063 71.4827 50.9415 65.0127 51.0868 61.9934C51.0731 61.7337 51.0658 61.4723 51.0658 61.2092C51.0658 60.8924 51.077 60.5783 51.0968 60.2665C51.5795 52.6831 57.8398 46.6624 65.4671 46.6624C73.4081 46.6624 79.8685 53.188 79.8685 61.2092C79.8685 69.2304 73.4081 75.7561 65.4671 75.7561C62.0926 75.7561 58.9858 74.5771 56.5282 72.6062C56.2812 76.7979 54.0348 80.5303 51.9892 83.1025C55.9035 85.5706 60.5225 87 65.4671 87C79.546 87 91 75.4304 91 61.2092C91 48.2041 81.4205 37.4184 69.015 35.6686ZM59.9688 28.8616C59.2466 31.9275 57.4875 34.6302 55.0651 36.5931C54.2896 37.2996 53.4378 37.9221 52.524 38.4467C50.3685 40.0457 48.7985 41.5199 45.1644 45.4912C41.145 49.8835 40.2505 57.7806 40.0588 61.6595C39.9388 64.0847 39.2415 66.4465 37.9903 68.5009C35.494 72.8355 30.845 75.7561 25.5329 75.7561C17.5919 75.7561 11.1315 69.2304 11.1315 61.2092C11.1315 53.188 17.5919 46.6624 25.5329 46.6624C28.6381 46.6624 31.5168 47.6603 33.8715 49.3552C35.3992 44.4035 38.3733 40.9596 40.0776 39.295C34.7797 37.1447 31.0291 31.9022 31.0291 25.7908C31.0291 17.7696 37.4895 11.2439 45.4304 11.2439C50.9352 11.2439 55.7277 14.3804 58.1507 18.9765C58.375 19.3207 58.5912 19.6807 58.7988 20.057C60.5427 23.2183 60.5739 26.2932 59.9688 28.8616Z" fill="#25EF7D"/>
</g>
<defs>
<clipPath id="clip0_667_211">
<rect width="91" height="87" fill="white"/>
</clipPath>
</defs>
</svg>
